<svg width="99" height="42" viewBox="0 0 99 42" fill="none" xmlns="http://www.w3.org/2000/svg">
<g filter="url(#filter0_d_1_140)">
<mask id="path-1-outside-1_1_140" maskUnits="userSpaceOnUse" x="3" y="-1" width="93" height="36" fill="black">
<rect fill="white" x="3" y="-1" width="93" height="36"/>
<path d="M4.988 26V0.799998H10.82V21.248H23.456V26H4.988ZM35.4643 26.288C33.4003 26.288 31.5643 25.856 29.9563 24.992C28.3723 24.128 27.1123 22.952 26.1763 21.464C25.2643 19.952 24.8083 18.236 24.8083 16.316C24.8083 14.372 25.2643 12.656 26.1763 11.168C27.1123 9.656 28.3723 8.48 29.9563 7.64C31.5643 6.776 33.4003 6.344 35.4643 6.344C37.5043 6.344 39.3283 6.776 40.9363 7.64C42.5443 8.48 43.8043 9.644 44.7163 11.132C45.6283 12.62 46.0843 14.348 46.0843 16.316C46.0843 18.236 45.6283 19.952 44.7163 21.464C43.8043 22.952 42.5443 24.128 40.9363 24.992C39.3283 25.856 37.5043 26.288 35.4643 26.288ZM35.4643 21.68C36.4003 21.68 37.2403 21.464 37.9843 21.032C38.7283 20.6 39.3163 19.988 39.7483 19.196C40.1803 18.38 40.3963 17.42 40.3963 16.316C40.3963 15.188 40.1803 14.228 39.7483 13.436C39.3163 12.644 38.7283 12.032 37.9843 11.6C37.2403 11.168 36.4003 10.952 35.4643 10.952C34.5283 10.952 33.6883 11.168 32.9443 11.6C32.2003 12.032 31.6003 12.644 31.1443 13.436C30.7123 14.228 30.4963 15.188 30.4963 16.316C30.4963 17.42 30.7123 18.38 31.1443 19.196C31.6003 19.988 32.2003 20.6 32.9443 21.032C33.6883 21.464 34.5283 21.68 35.4643 21.68ZM58.9461 33.272C57.1221 33.272 55.3581 33.044 53.6541 32.588C51.9741 32.156 50.5701 31.496 49.4421 30.608L51.6741 26.576C52.4901 27.248 53.5221 27.776 54.7701 28.16C56.0421 28.568 57.2901 28.772 58.5141 28.772C60.5061 28.772 61.9461 28.328 62.8341 27.44C63.7461 26.552 64.2021 25.232 64.2021 23.48V20.564L64.5621 15.704L64.4901 10.808V6.632H69.8181V22.76C69.8181 26.36 68.8821 29.012 67.0101 30.716C65.1381 32.42 62.4501 33.272 58.9461 33.272ZM58.0821 25.064C56.2821 25.064 54.6501 24.68 53.1861 23.912C51.7461 23.12 50.5821 22.028 49.6941 20.636C48.8301 19.22 48.3981 17.576 48.3981 15.704C48.3981 13.808 48.8301 12.164 49.6941 10.772C50.5821 9.356 51.7461 8.264 53.1861 7.496C54.6501 6.728 56.2821 6.344 58.0821 6.344C59.7141 6.344 61.1541 6.68 62.4021 7.352C63.6501 8 64.6221 9.02 65.3181 10.412C66.0141 11.78 66.3621 13.544 66.3621 15.704C66.3621 17.84 66.0141 19.604 65.3181 20.996C64.6221 22.364 63.6501 23.384 62.4021 24.056C61.1541 24.728 59.7141 25.064 58.0821 25.064ZM59.1981 20.456C60.1821 20.456 61.0581 20.264 61.8261 19.88C62.5941 19.472 63.1941 18.908 63.6261 18.188C64.0581 17.468 64.2741 16.64 64.2741 15.704C64.2741 14.744 64.0581 13.916 63.6261 13.22C63.1941 12.5 62.5941 11.948 61.8261 11.564C61.0581 11.156 60.1821 10.952 59.1981 10.952C58.2141 10.952 57.3381 11.156 56.5701 11.564C55.8021 11.948 55.1901 12.5 54.7341 13.22C54.3021 13.916 54.0861 14.744 54.0861 15.704C54.0861 16.64 54.3021 17.468 54.7341 18.188C55.1901 18.908 55.8021 19.472 56.5701 19.88C57.3381 20.264 58.2141 20.456 59.1981 20.456ZM84.2611 26.288C82.1971 26.288 80.3611 25.856 78.7531 24.992C77.1691 24.128 75.9091 22.952 74.9731 21.464C74.0611 19.952 73.6051 18.236 73.6051 16.316C73.6051 14.372 74.0611 12.656 74.9731 11.168C75.9091 9.656 77.1691 8.48 78.7531 7.64C80.3611 6.776 82.1971 6.344 84.2611 6.344C86.3011 6.344 88.1251 6.776 89.7331 7.64C91.3411 8.48 92.6011 9.644 93.5131 11.132C94.4251 12.62 94.8811 14.348 94.8811 16.316C94.8811 18.236 94.4251 19.952 93.5131 21.464C92.6011 22.952 91.3411 24.128 89.7331 24.992C88.1251 25.856 86.3011 26.288 84.2611 26.288ZM84.2611 21.68C85.1971 21.68 86.0371 21.464 86.7811 21.032C87.5251 20.6 88.1131 19.988 88.5451 19.196C88.9771 18.38 89.1931 17.42 89.1931 16.316C89.1931 15.188 88.9771 14.228 88.5451 13.436C88.1131 12.644 87.5251 12.032 86.7811 11.6C86.0371 11.168 85.1971 10.952 84.2611 10.952C83.3251 10.952 82.4851 11.168 81.7411 11.6C80.9971 12.032 80.3971 12.644 79.9411 13.436C79.5091 14.228 79.2931 15.188 79.2931 16.316C79.2931 17.42 79.5091 18.38 79.9411 19.196C80.3971 19.988 80.9971 20.6 81.7411 21.032C82.4851 21.464 83.3251 21.68 84.2611 21.68Z"/>
</mask>
<path d="M4.988 26V0.799998H10.82V21.248H23.456V26H4.988ZM35.4643 26.288C33.4003 26.288 31.5643 25.856 29.9563 24.992C28.3723 24.128 27.1123 22.952 26.1763 21.464C25.2643 19.952 24.8083 18.236 24.8083 16.316C24.8083 14.372 25.2643 12.656 26.1763 11.168C27.1123 9.656 28.3723 8.48 29.9563 7.64C31.5643 6.776 33.4003 6.344 35.4643 6.344C37.5043 6.344 39.3283 6.776 40.9363 7.64C42.5443 8.48 43.8043 9.644 44.7163 11.132C45.6283 12.62 46.0843 14.348 46.0843 16.316C46.0843 18.236 45.6283 19.952 44.7163 21.464C43.8043 22.952 42.5443 24.128 40.9363 24.992C39.3283 25.856 37.5043 26.288 35.4643 26.288ZM35.4643 21.68C36.4003 21.68 37.2403 21.464 37.9843 21.032C38.7283 20.6 39.3163 19.988 39.7483 19.196C40.1803 18.38 40.3963 17.42 40.3963 16.316C40.3963 15.188 40.1803 14.228 39.7483 13.436C39.3163 12.644 38.7283 12.032 37.9843 11.6C37.2403 11.168 36.4003 10.952 35.4643 10.952C34.5283 10.952 33.6883 11.168 32.9443 11.6C32.2003 12.032 31.6003 12.644 31.1443 13.436C30.7123 14.228 30.4963 15.188 30.4963 16.316C30.4963 17.42 30.7123 18.38 31.1443 19.196C31.6003 19.988 32.2003 20.6 32.9443 21.032C33.6883 21.464 34.5283 21.68 35.4643 21.68ZM58.9461 33.272C57.1221 33.272 55.3581 33.044 53.6541 32.588C51.9741 32.156 50.5701 31.496 49.4421 30.608L51.6741 26.576C52.4901 27.248 53.5221 27.776 54.7701 28.16C56.0421 28.568 57.2901 28.772 58.5141 28.772C60.5061 28.772 61.9461 28.328 62.8341 27.44C63.7461 26.552 64.2021 25.232 64.2021 23.48V20.564L64.5621 15.704L64.4901 10.808V6.632H69.8181V22.76C69.8181 26.36 68.8821 29.012 67.0101 30.716C65.1381 32.42 62.4501 33.272 58.9461 33.272ZM58.0821 25.064C56.2821 25.064 54.6501 24.68 53.1861 23.912C51.7461 23.12 50.5821 22.028 49.6941 20.636C48.8301 19.22 48.3981 17.576 48.3981 15.704C48.3981 13.808 48.8301 12.164 49.6941 10.772C50.5821 9.356 51.7461 8.264 53.1861 7.496C54.6501 6.728 56.2821 6.344 58.0821 6.344C59.7141 6.344 61.1541 6.68 62.4021 7.352C63.6501 8 64.6221 9.02 65.3181 10.412C66.0141 11.78 66.3621 13.544 66.3621 15.704C66.3621 17.84 66.0141 19.604 65.3181 20.996C64.6221 22.364 63.6501 23.384 62.4021 24.056C61.1541 24.728 59.7141 25.064 58.0821 25.064ZM59.1981 20.456C60.1821 20.456 61.0581 20.264 61.8261 19.88C62.5941 19.472 63.1941 18.908 63.6261 18.188C64.0581 17.468 64.2741 16.64 64.2741 15.704C64.2741 14.744 64.0581 13.916 63.6261 13.22C63.1941 12.5 62.5941 11.948 61.8261 11.564C61.0581 11.156 60.1821 10.952 59.1981 10.952C58.2141 10.952 57.3381 11.156 56.5701 11.564C55.8021 11.948 55.1901 12.5 54.7341 13.22C54.3021 13.916 54.0861 14.744 54.0861 15.704C54.0861 16.64 54.3021 17.468 54.7341 18.188C55.1901 18.908 55.8021 19.472 56.5701 19.88C57.3381 20.264 58.2141 20.456 59.1981 20.456ZM84.2611 26.288C82.1971 26.288 80.3611 25.856 78.7531 24.992C77.1691 24.128 75.9091 22.952 74.9731 21.464C74.0611 19.952 73.6051 18.236 73.6051 16.316C73.6051 14.372 74.0611 12.656 74.9731 11.168C75.9091 9.656 77.1691 8.48 78.7531 7.64C80.3611 6.776 82.1971 6.344 84.2611 6.344C86.3011 6.344 88.1251 6.776 89.7331 7.64C91.3411 8.48 92.6011 9.644 93.5131 11.132C94.4251 12.62 94.8811 14.348 94.8811 16.316C94.8811 18.236 94.4251 19.952 93.5131 21.464C92.6011 22.952 91.3411 24.128 89.7331 24.992C88.1251 25.856 86.3011 26.288 84.2611 26.288ZM84.2611 21.68C85.1971 21.68 86.0371 21.464 86.7811 21.032C87.5251 20.6 88.1131 19.988 88.5451 19.196C88.9771 18.38 89.1931 17.42 89.1931 16.316C89.1931 15.188 88.9771 14.228 88.5451 13.436C88.1131 12.644 87.5251 12.032 86.7811 11.6C86.0371 11.168 85.1971 10.952 84.2611 10.952C83.3251 10.952 82.4851 11.168 81.7411 11.6C80.9971 12.032 80.3971 12.644 79.9411 13.436C79.5091 14.228 79.2931 15.188 79.2931 16.316C79.2931 17.42 79.5091 18.38 79.9411 19.196C80.3971 19.988 80.9971 20.6 81.7411 21.032C82.4851 21.464 83.3251 21.68 84.2611 21.68Z" fill="black"/>
<path d="M4.988 26H3.988V27H4.988V26ZM4.988 0.799998V-0.200002H3.988V0.799998H4.988ZM10.82 0.799998H11.82V-0.200002H10.82V0.799998ZM10.82 21.248H9.82V22.248H10.82V21.248ZM23.456 21.248H24.456V20.248H23.456V21.248ZM23.456 26V27H24.456V26H23.456ZM5.988 26V0.799998H3.988V26H5.988ZM4.988 1.8H10.82V-0.200002H4.988V1.8ZM9.82 0.799998V21.248H11.82V0.799998H9.82ZM10.82 22.248H23.456V20.248H10.82V22.248ZM22.456 21.248V26H24.456V21.248H22.456ZM23.456 25H4.988V27H23.456V25ZM29.9563 24.992L29.4774 25.8699L29.4829 25.8729L29.9563 24.992ZM26.1763 21.464L25.32 21.9805L25.3248 21.9885L25.3298 21.9965L26.1763 21.464ZM26.1763 11.168L25.326 10.6416L25.3236 10.6454L26.1763 11.168ZM29.9563 7.64L30.4248 8.52347L30.4296 8.52089L29.9563 7.64ZM40.9363 7.64L40.4629 8.52095L40.4732 8.52635L40.9363 7.64ZM44.7163 21.464L45.5689 21.9866L45.5725 21.9805L44.7163 21.464ZM40.9363 24.992L40.4629 24.1111L40.4629 24.1111L40.9363 24.992ZM37.9843 21.032L38.4864 21.8968L38.4864 21.8968L37.9843 21.032ZM39.7483 19.196L40.6262 19.6749L40.632 19.6639L39.7483 19.196ZM39.7483 13.436L38.8704 13.9149L38.8704 13.9149L39.7483 13.436ZM37.9843 11.6L37.4821 12.4648L37.4821 12.4648L37.9843 11.6ZM32.9443 11.6L33.4464 12.4648L33.4464 12.4648L32.9443 11.6ZM31.1443 13.436L30.2776 12.937L30.2719 12.947L30.2664 12.9571L31.1443 13.436ZM31.1443 19.196L30.2605 19.6639L30.2688 19.6796L30.2776 19.695L31.1443 19.196ZM32.9443 21.032L33.4464 20.1672L33.4464 20.1672L32.9443 21.032ZM35.4643 25.288C33.5436 25.288 31.8739 24.8872 30.4296 24.1111L29.4829 25.8729C31.2546 26.8248 33.2569 27.288 35.4643 27.288V25.288ZM30.4351 24.1141C28.997 23.3297 27.8652 22.2709 27.0227 20.9315L25.3298 21.9965C26.3593 23.6331 27.7475 24.9263 29.4774 25.8699L30.4351 24.1141ZM27.0325 20.9475C26.2227 19.6049 25.8083 18.0704 25.8083 16.316H23.8083C23.8083 18.4016 24.3058 20.2991 25.32 21.9805L27.0325 20.9475ZM25.8083 16.316C25.8083 14.5348 26.2239 13.0038 27.0289 11.6906L25.3236 10.6454C24.3046 12.3082 23.8083 14.2092 23.8083 16.316H25.8083ZM27.0265 11.6944C27.8684 10.3344 28.9961 9.2811 30.4248 8.52346L29.4877 6.75654C27.7484 7.6789 26.3561 8.97756 25.326 10.6416L27.0265 11.6944ZM30.4296 8.52089C31.8739 7.74481 33.5436 7.344 35.4643 7.344V5.344C33.2569 5.344 31.2546 5.80718 29.4829 6.75911L30.4296 8.52089ZM35.4643 7.344C37.3588 7.344 39.0169 7.74392 40.4629 8.52089L41.4096 6.75911C39.6396 5.80808 37.6497 5.344 35.4643 5.344V7.344ZM40.4732 8.52635C41.9275 9.28603 43.05 10.3271 43.8637 11.6546L45.5689 10.6094C44.5585 8.96091 43.161 7.67397 41.3993 6.75365L40.4732 8.52635ZM43.8637 11.6546C44.6674 12.9659 45.0843 14.5083 45.0843 16.316H47.0843C47.0843 14.1877 46.5891 12.2741 45.5689 10.6094L43.8637 11.6546ZM45.0843 16.316C45.0843 18.0704 44.6698 19.6049 43.86 20.9475L45.5725 21.9805C46.5867 20.2991 47.0843 18.4016 47.0843 16.316H45.0843ZM43.8637 20.9414C43.0485 22.2715 41.9225 23.3269 40.4629 24.1111L41.4096 25.8729C43.166 24.9291 44.56 23.6325 45.5689 21.9866L43.8637 20.9414ZM40.4629 24.1111C39.0169 24.8881 37.3588 25.288 35.4643 25.288V27.288C37.6497 27.288 39.6396 26.8239 41.4096 25.8729L40.4629 24.1111ZM35.4643 22.68C36.5606 22.68 37.5766 22.4251 38.4864 21.8968L37.4821 20.1672C36.9039 20.5029 36.2399 20.68 35.4643 20.68V22.68ZM38.4864 21.8968C39.3964 21.3684 40.111 20.6193 40.6261 19.6749L38.8704 18.7171C38.5215 19.3567 38.0601 19.8316 37.4821 20.1672L38.4864 21.8968ZM40.632 19.6639C41.1539 18.6781 41.3963 17.5513 41.3963 16.316H39.3963C39.3963 17.2887 39.2066 18.0819 38.8645 18.7281L40.632 19.6639ZM41.3963 16.316C41.3963 15.0619 41.1559 13.9284 40.6261 12.9571L38.8704 13.9149C39.2046 14.5276 39.3963 15.3141 39.3963 16.316H41.3963ZM40.6261 12.9571C40.111 12.0127 39.3964 11.2636 38.4864 10.7352L37.4821 12.4648C38.0601 12.8004 38.5215 13.2753 38.8704 13.9149L40.6261 12.9571ZM38.4864 10.7352C37.5766 10.2069 36.5606 9.952 35.4643 9.952V11.952C36.2399 11.952 36.9039 12.1291 37.4821 12.4648L38.4864 10.7352ZM35.4643 9.952C34.3679 9.952 33.3519 10.2069 32.4421 10.7352L33.4464 12.4648C34.0246 12.1291 34.6886 11.952 35.4643 11.952V9.952ZM32.4421 10.7352C31.5372 11.2606 30.8154 12.0031 30.2776 12.937L32.0109 13.935C32.3851 13.2849 32.8633 12.8034 33.4464 12.4648L32.4421 10.7352ZM30.2664 12.9571C29.7366 13.9284 29.4963 15.0619 29.4963 16.316H31.4963C31.4963 15.3141 31.6879 14.5276 32.0221 13.9149L30.2664 12.9571ZM29.4963 16.316C29.4963 17.5513 29.7386 18.6781 30.2605 19.6639L32.028 18.7281C31.6859 18.0819 31.4963 17.2887 31.4963 16.316H29.4963ZM30.2776 19.695C30.8154 20.6289 31.5372 21.3714 32.4421 21.8968L33.4464 20.1672C32.8633 19.8286 32.3851 19.3471 32.0109 18.697L30.2776 19.695ZM32.4421 21.8968C33.3519 22.4251 34.3679 22.68 35.4643 22.68V20.68C34.6886 20.68 34.0246 20.5029 33.4464 20.1672L32.4421 21.8968ZM53.6541 32.588L53.9126 31.6219L53.9031 31.6195L53.6541 32.588ZM49.4421 30.608L48.5672 30.1237L48.1553 30.8677L48.8235 31.3937L49.4421 30.608ZM51.6741 26.576L52.3098 25.8041L51.3816 25.0396L50.7992 26.0917L51.6741 26.576ZM54.7701 28.16L55.0755 27.2077L55.0642 27.2042L54.7701 28.16ZM62.8341 27.44L62.1364 26.7235L62.127 26.7329L62.8341 27.44ZM64.2021 20.564L63.2048 20.4901L63.2021 20.527V20.564H64.2021ZM64.5621 15.704L65.5594 15.7779L65.5626 15.7336L65.562 15.6893L64.5621 15.704ZM64.4901 10.808H63.4901V10.8154L63.4902 10.8227L64.4901 10.808ZM64.4901 6.632V5.632H63.4901V6.632H64.4901ZM69.8181 6.632H70.8181V5.632H69.8181V6.632ZM67.0101 30.716L67.6832 31.4555L67.6832 31.4555L67.0101 30.716ZM53.1861 23.912L52.7042 24.7882L52.7128 24.793L52.7215 24.7975L53.1861 23.912ZM49.6941 20.636L48.8405 21.1569L48.8457 21.1654L48.851 21.1738L49.6941 20.636ZM49.6941 10.772L48.8469 10.2407L48.8445 10.2446L49.6941 10.772ZM53.1861 7.496L52.7215 6.61043L52.7155 6.61365L53.1861 7.496ZM62.4021 7.352L61.928 8.23247L61.9346 8.23603L61.9413 8.2395L62.4021 7.352ZM65.3181 10.412L64.4236 10.8592L64.4268 10.8655L65.3181 10.412ZM65.3181 20.996L66.2094 21.4495L66.2125 21.4432L65.3181 20.996ZM62.4021 24.056L62.8762 24.9365L62.8762 24.9365L62.4021 24.056ZM61.8261 19.88L62.2733 20.7744L62.2843 20.7689L62.2953 20.7631L61.8261 19.88ZM63.6261 13.22L62.7686 13.7345L62.7725 13.741L62.7765 13.7474L63.6261 13.22ZM61.8261 11.564L61.3569 12.4471L61.3678 12.4529L61.3789 12.4584L61.8261 11.564ZM56.5701 11.564L57.0173 12.4584L57.0283 12.4529L57.0392 12.4471L56.5701 11.564ZM54.7341 13.22L53.8892 12.6849L53.8845 12.6926L54.7341 13.22ZM54.7341 18.188L53.8766 18.7025L53.8828 18.7129L53.8893 18.7231L54.7341 18.188ZM56.5701 19.88L56.1009 20.7631L56.1118 20.7689L56.1229 20.7744L56.5701 19.88ZM58.9461 32.272C57.2064 32.272 55.5295 32.0547 53.9126 31.622L53.3956 33.554C55.1867 34.0333 57.0378 34.272 58.9461 34.272V32.272ZM53.9031 31.6195C52.3302 31.215 51.0592 30.6084 50.0607 29.8223L48.8235 31.3937C50.0809 32.3836 51.618 33.097 53.4051 33.5565L53.9031 31.6195ZM50.317 31.0923L52.549 27.0603L50.7992 26.0917L48.5672 30.1237L50.317 31.0923ZM51.0384 27.3479C51.9758 28.12 53.1317 28.7021 54.476 29.1158L55.0642 27.2042C53.9125 26.8499 53.0043 26.376 52.3098 25.8041L51.0384 27.3479ZM54.4647 29.1122C55.8264 29.549 57.1774 29.772 58.5141 29.772V27.772C57.4028 27.772 56.2578 27.587 55.0755 27.2078L54.4647 29.1122ZM58.5141 29.772C60.6211 29.772 62.3811 29.3072 63.5412 28.1471L62.127 26.7329C61.5111 27.3488 60.391 27.772 58.5141 27.772V29.772ZM63.5317 28.1565C64.7007 27.0182 65.2021 25.3977 65.2021 23.48H63.2021C63.2021 25.0663 62.7915 26.0858 62.1365 26.7235L63.5317 28.1565ZM65.2021 23.48V20.564H63.2021V23.48H65.2021ZM65.1994 20.6379L65.5594 15.7779L63.5648 15.6301L63.2048 20.4901L65.1994 20.6379ZM65.562 15.6893L65.49 10.7933L63.4902 10.8227L63.5622 15.7187L65.562 15.6893ZM65.4901 10.808V6.632H63.4901V10.808H65.4901ZM64.4901 7.632H69.8181V5.632H64.4901V7.632ZM68.8181 6.632V22.76H70.8181V6.632H68.8181ZM68.8181 22.76C68.8181 26.2002 67.9252 28.5308 66.337 29.9765L67.6832 31.4555C69.839 29.4932 70.8181 26.5198 70.8181 22.76H68.8181ZM66.337 29.9765C64.7096 31.4578 62.2973 32.272 58.9461 32.272V34.272C62.6029 34.272 65.5666 33.3822 67.6832 31.4555L66.337 29.9765ZM58.0821 24.064C56.4292 24.064 54.9589 23.7127 53.6506 23.0265L52.7215 24.7975C54.3413 25.6473 56.135 26.064 58.0821 26.064V24.064ZM53.668 23.0358C52.3756 22.3249 51.3355 21.3496 50.5372 20.0982L48.851 21.1738C49.8287 22.7064 51.1166 23.9151 52.7042 24.7882L53.668 23.0358ZM50.5477 20.1151C49.7913 18.8755 49.3981 17.4164 49.3981 15.704H47.3981C47.3981 17.7356 47.8689 19.5645 48.8405 21.1569L50.5477 20.1151ZM49.3981 15.704C49.3981 13.9645 49.7927 12.5094 50.5437 11.2994L48.8445 10.2446C47.8675 11.8186 47.3981 13.6515 47.3981 15.704H49.3981ZM50.5413 11.3033C51.3389 10.0314 52.3746 9.06216 53.6567 8.37835L52.7155 6.61365C51.1176 7.46584 49.8253 8.68056 48.8469 10.2407L50.5413 11.3033ZM53.6506 8.38155C54.9589 7.69526 56.4292 7.344 58.0821 7.344V5.344C56.135 5.344 54.3413 5.76074 52.7215 6.61045L53.6506 8.38155ZM58.0821 7.344C59.5739 7.344 60.8464 7.65009 61.928 8.23247L62.8762 6.47153C61.4618 5.70991 59.8543 5.344 58.0821 5.344V7.344ZM61.9413 8.2395C62.9819 8.77983 63.8115 9.63491 64.4237 10.8592L66.2125 9.96479C65.4327 8.40509 64.3183 7.22017 62.8629 6.4645L61.9413 8.2395ZM64.4268 10.8655C65.0283 12.0476 65.3621 13.6413 65.3621 15.704H67.3621C67.3621 13.4467 66.9999 11.5124 66.2094 9.95854L64.4268 10.8655ZM65.3621 15.704C65.3621 17.7395 65.0293 19.3375 64.4237 20.5488L66.2125 21.4432C66.9989 19.8705 67.3621 17.9405 67.3621 15.704H65.3621ZM64.4268 20.5425C63.8151 21.7448 62.9817 22.6081 61.928 23.1755L62.8762 24.9365C64.3185 24.1599 65.4291 22.9832 66.2094 21.4495L64.4268 20.5425ZM61.928 23.1755C60.8464 23.7579 59.5739 24.064 58.0821 24.064V26.064C59.8543 26.064 61.4618 25.6981 62.8762 24.9365L61.928 23.1755ZM59.1981 21.456C60.3146 21.456 61.3474 21.2374 62.2733 20.7744L61.3789 18.9856C60.7687 19.2906 60.0496 19.456 59.1981 19.456V21.456ZM62.2953 20.7631C63.2178 20.273 63.9546 19.5841 64.4836 18.7025L62.7686 17.6735C62.4336 18.2319 61.9704 18.671 61.3569 18.9969L62.2953 20.7631ZM64.4836 18.7025C65.0192 17.8097 65.2741 16.7999 65.2741 15.704H63.2741C63.2741 16.4801 63.0969 17.1263 62.7686 17.6735L64.4836 18.7025ZM65.2741 15.704C65.2741 14.5902 65.0219 13.5725 64.4757 12.6926L62.7765 13.7474C63.0943 14.2595 63.2741 14.8978 63.2741 15.704H65.2741ZM64.4836 12.7055C63.9514 11.8186 63.2073 11.1366 62.2733 10.6696L61.3789 12.4584C61.9808 12.7594 62.4368 13.1814 62.7686 13.7345L64.4836 12.7055ZM62.2952 10.6809C61.3647 10.1865 60.3239 9.952 59.1981 9.952V11.952C60.0403 11.952 60.7515 12.1255 61.3569 12.4471L62.2952 10.6809ZM59.1981 9.952C58.0723 9.952 57.0315 10.1865 56.1009 10.6809L57.0392 12.4471C57.6447 12.1255 58.3559 11.952 59.1981 11.952V9.952ZM56.1229 10.6696C55.1934 11.1343 54.4434 11.81 53.8893 12.6849L55.5789 13.7551C55.9368 13.19 56.4108 12.7617 57.0173 12.4584L56.1229 10.6696ZM53.8845 12.6926C53.3383 13.5725 53.0861 14.5902 53.0861 15.704H55.0861C55.0861 14.8978 55.2659 14.2595 55.5837 13.7474L53.8845 12.6926ZM53.0861 15.704C53.0861 16.7999 53.3409 17.8097 53.8766 18.7025L55.5916 17.6735C55.2632 17.1263 55.0861 16.4801 55.0861 15.704H53.0861ZM53.8893 18.7231C54.4401 19.5928 55.1829 20.2754 56.1009 20.7631L57.0392 18.9969C56.4213 18.6686 55.9401 18.2232 55.5789 17.6529L53.8893 18.7231ZM56.1229 20.7744C57.0487 21.2374 58.0816 21.456 59.1981 21.456V19.456C58.3466 19.456 57.6274 19.2906 57.0173 18.9856L56.1229 20.7744ZM78.7531 24.992L78.2743 25.8699L78.2798 25.8729L78.7531 24.992ZM74.9731 21.464L74.1168 21.9805L74.1217 21.9885L74.1267 21.9965L74.9731 21.464ZM74.9731 11.168L74.1229 10.6416L74.1205 10.6454L74.9731 11.168ZM78.7531 7.64L79.2216 8.52347L79.2264 8.52089L78.7531 7.64ZM89.7331 7.64L89.2598 8.52095L89.2701 8.52635L89.7331 7.64ZM93.5131 21.464L94.3657 21.9866L94.3694 21.9805L93.5131 21.464ZM89.7331 24.992L89.2598 24.1111L89.2598 24.1111L89.7331 24.992ZM86.7811 21.032L87.2833 21.8968L87.2833 21.8968L86.7811 21.032ZM88.5451 19.196L89.4231 19.6749L89.4289 19.6639L88.5451 19.196ZM88.5451 13.436L87.6672 13.9149L87.6672 13.9149L88.5451 13.436ZM86.7811 11.6L86.279 12.4648L86.279 12.4648L86.7811 11.6ZM81.7411 11.6L82.2433 12.4648L82.2433 12.4648L81.7411 11.6ZM79.9411 13.436L79.0745 12.937L79.0688 12.947L79.0632 12.9571L79.9411 13.436ZM79.9411 19.196L79.0573 19.6639L79.0656 19.6796L79.0745 19.695L79.9411 19.196ZM81.7411 21.032L82.2433 20.1672L82.2433 20.1672L81.7411 21.032ZM84.2611 25.288C82.3404 25.288 80.6708 24.8872 79.2264 24.1111L78.2798 25.8729C80.0514 26.8248 82.0538 27.288 84.2611 27.288V25.288ZM79.232 24.1141C77.7939 23.3297 76.6621 22.2709 75.8196 20.9315L74.1267 21.9965C75.1561 23.6331 76.5444 24.9263 78.2743 25.8699L79.232 24.1141ZM75.8294 20.9475C75.0196 19.6049 74.6051 18.0704 74.6051 16.316H72.6051C72.6051 18.4016 73.1027 20.2991 74.1168 21.9805L75.8294 20.9475ZM74.6051 16.316C74.6051 14.5348 75.0208 13.0038 75.8257 11.6906L74.1205 10.6454C73.1014 12.3082 72.6051 14.2092 72.6051 16.316H74.6051ZM75.8234 11.6944C76.6652 10.3344 77.7929 9.2811 79.2216 8.52346L78.2846 6.75654C76.5453 7.6789 75.153 8.97756 74.1229 10.6416L75.8234 11.6944ZM79.2264 8.52089C80.6708 7.74481 82.3404 7.344 84.2611 7.344V5.344C82.0538 5.344 80.0514 5.80718 78.2798 6.75911L79.2264 8.52089ZM84.2611 7.344C86.1557 7.344 87.8138 7.74392 89.2598 8.52089L90.2064 6.75911C88.4365 5.80808 86.4466 5.344 84.2611 5.344V7.344ZM89.2701 8.52635C90.7244 9.28603 91.8469 10.3271 92.6605 11.6546L94.3657 10.6094C93.3553 8.96091 91.9579 7.67397 90.1961 6.75365L89.2701 8.52635ZM92.6605 11.6546C93.4643 12.9659 93.8811 14.5083 93.8811 16.316H95.8811C95.8811 14.1877 95.386 12.2741 94.3657 10.6094L92.6605 11.6546ZM93.8811 16.316C93.8811 18.0704 93.4667 19.6049 92.6568 20.9475L94.3694 21.9805C95.3836 20.2991 95.8811 18.4016 95.8811 16.316H93.8811ZM92.6605 20.9414C91.8453 22.2715 90.7194 23.3269 89.2598 24.1111L90.2064 25.8729C91.9629 24.9291 93.3569 23.6325 94.3657 21.9866L92.6605 20.9414ZM89.2598 24.1111C87.8138 24.8881 86.1557 25.288 84.2611 25.288V27.288C86.4466 27.288 88.4365 26.8239 90.2064 25.8729L89.2598 24.1111ZM84.2611 22.68C85.3575 22.68 86.3735 22.4251 87.2833 21.8968L86.279 20.1672C85.7008 20.5029 85.0367 20.68 84.2611 20.68V22.68ZM87.2833 21.8968C88.1933 21.3684 88.9079 20.6193 89.423 19.6749L87.6672 18.7171C87.3184 19.3567 86.8569 19.8316 86.279 20.1672L87.2833 21.8968ZM89.4289 19.6639C89.9508 18.6781 90.1931 17.5513 90.1931 16.316H88.1931C88.1931 17.2887 88.0034 18.0819 87.6613 18.7281L89.4289 19.6639ZM90.1931 16.316C90.1931 15.0619 89.9528 13.9284 89.423 12.9571L87.6672 13.9149C88.0015 14.5276 88.1931 15.3141 88.1931 16.316H90.1931ZM89.423 12.9571C88.9079 12.0127 88.1933 11.2636 87.2833 10.7352L86.279 12.4648C86.8569 12.8004 87.3184 13.2753 87.6672 13.9149L89.423 12.9571ZM87.2833 10.7352C86.3735 10.2069 85.3575 9.952 84.2611 9.952V11.952C85.0367 11.952 85.7008 12.1291 86.279 12.4648L87.2833 10.7352ZM84.2611 9.952C83.1647 9.952 82.1488 10.2069 81.239 10.7352L82.2433 12.4648C82.8215 12.1291 83.4855 11.952 84.2611 11.952V9.952ZM81.239 10.7352C80.3341 11.2606 79.6122 12.0031 79.0745 12.937L80.8077 13.935C81.182 13.2849 81.6602 12.8034 82.2433 12.4648L81.239 10.7352ZM79.0632 12.9571C78.5335 13.9284 78.2931 15.0619 78.2931 16.316H80.2931C80.2931 15.3141 80.4848 14.5276 80.819 13.9149L79.0632 12.9571ZM78.2931 16.316C78.2931 17.5513 78.5354 18.6781 79.0573 19.6639L80.8249 18.7281C80.4828 18.0819 80.2931 17.2887 80.2931 16.316H78.2931ZM79.0745 19.695C79.6122 20.6289 80.3341 21.3714 81.239 21.8968L82.2433 20.1672C81.6602 19.8286 81.182 19.3471 80.8077 18.697L79.0745 19.695ZM81.239 21.8968C82.1488 22.4251 83.1647 22.68 84.2611 22.68V20.68C83.4855 20.68 82.8215 20.5029 82.2433 20.1672L81.239 21.8968Z" fill="black" mask="url(#path-1-outside-1_1_140)"/>
</g>
<defs>
<filter id="filter0_d_1_140" x="0.988037" y="0.800049" width="97.8931" height="40.4719" filterUnits="userSpaceOnUse" color-interpolation-filters="sRGB">
<feFlood flood-opacity="0" result="BackgroundImageFix"/>
<feColorMatrix in="SourceAlpha" type="matrix" values="0 0 0 0 0 0 0 0 0 0 0 0 0 0 0 0 0 0 127 0" result="hardAlpha"/>
<feOffset dy="4"/>
<feGaussianBlur stdDeviation="2"/>
<feComposite in2="hardAlpha" operator="out"/>
<feColorMatrix type="matrix" values="0 0 0 0 0 0 0 0 0 0 0 0 0 0 0 0 0 0 0.25 0"/>
<feBlend mode="normal" in2="BackgroundImageFix" result="effect1_dropShadow_1_140"/>
<feBlend mode="normal" in="SourceGraphic" in2="effect1_dropShadow_1_140" result="shape"/>
</filter>
</defs>
</svg>
